<?xml version="1.0" encoding="UTF-8" standalone="no"?>
<!-- Created with Inkscape (http://www.inkscape.org/) -->

<svg
   xmlns:dc="http://purl.org/dc/elements/1.1/"
   xmlns:cc="http://creativecommons.org/ns#"
   xmlns:rdf="http://www.w3.org/1999/02/22-rdf-syntax-ns#"
   xmlns:svg="http://www.w3.org/2000/svg"
   xmlns="http://www.w3.org/2000/svg"
   xmlns:sodipodi="http://sodipodi.sourceforge.net/DTD/sodipodi-0.dtd"
   xmlns:inkscape="http://www.inkscape.org/namespaces/inkscape"
   id="svg2"
   version="1.1"
   inkscape:version="0.91 r13725"
   xml:space="preserve"
   width="781.29919"
   height="970.36749"
   viewBox="0 0 781.29919 970.36749"
   sodipodi:docname="storage_clean.svg"><metadata
     id="metadata8"><rdf:RDF><cc:Work
         rdf:about=""><dc:format>image/svg+xml</dc:format><dc:type
           rdf:resource="http://purl.org/dc/dcmitype/StillImage" /></cc:Work></rdf:RDF></metadata><defs
     id="defs6" /><sodipodi:namedview
     pagecolor="#ffffff"
     bordercolor="#666666"
     borderopacity="1"
     objecttolerance="10"
     gridtolerance="10"
     guidetolerance="10"
     inkscape:pageopacity="0"
     inkscape:pageshadow="2"
     inkscape:window-width="640"
     inkscape:window-height="480"
     id="namedview4"
     showgrid="false"
     inkscape:zoom="0.68789279"
     inkscape:cx="170.4699"
     inkscape:cy="473.55403"
     inkscape:current-layer="g12" /><g
     id="g10"
     inkscape:groupmode="layer"
     inkscape:label="storage_clean"
     transform="matrix(1.25,0,0,-1.25,0,970.36751)"><g
       id="g12"><g
         id="g14"
         transform="matrix(0,-1,-1,0,0,776.29401)"><path
           d="m 161.887,-0.926 112.383,0 0,-196.789 -112.383,0 0,196.789 z"
           style="fill:#eaeaea;fill-opacity:1;fill-rule:nonzero;stroke:#808080;stroke-width:1.41732299;stroke-linecap:butt;stroke-linejoin:miter;stroke-miterlimit:4;stroke-dasharray:none;stroke-opacity:1"
           id="path16"
           inkscape:connector-curvature="0" /></g><g
         id="g18"
         transform="matrix(1,0,0,-1,0,776.29401)"><path
           d="m 141.73,216.078 -81.425,0"
           style="fill:none;stroke:#000000;stroke-width:3;stroke-linecap:butt;stroke-linejoin:miter;stroke-miterlimit:4;stroke-dasharray:none;stroke-opacity:1"
           id="path20"
           inkscape:connector-curvature="0" /></g><text
         transform="scale(1,-1)"
         style="font-variant:normal;font-weight:normal;font-size:39.99999619px;font-family:'DejaVu Sans';-inkscape-font-specification:DejaVuSans;writing-mode:lr-tb;fill:#000000;fill-opacity:1;fill-rule:nonzero;stroke:none"
         id="text22"
         x="4.9652591"
         y="-747.21478"><tspan
           x="4.9652591 39.445259 64.045258 79.72525 104.20525 129.56525 154.04524 169.72525 194.32524"
           y="-747.21478"
           sodipodi:role="line"
           id="tspan24">Metadata </tspan><tspan
           x="23.676178 49.036179 73.636169 90.076172 113.71618 138.31616 154.75616 175.55617"
           y="-697.21478"
           sodipodi:role="line"
           id="tspan26">Servers </tspan><tspan
           x="38.754299 54.354298 88.83429 119.63429"
           y="-647.21478"
           sodipodi:role="line"
           id="tspan28">(MDS)</tspan></text>
<g
         id="g30"
         transform="matrix(0,-1,-1,0,0,776.29401)"><path
           d="m 329.629,-255.828 282.047,0 0,-368.504 -282.047,0 0,368.504 z"
           style="fill:#eaeaea;fill-opacity:1;fill-rule:nonzero;stroke:#808080;stroke-width:1.41732299;stroke-linecap:butt;stroke-linejoin:miter;stroke-miterlimit:4;stroke-dasharray:none;stroke-opacity:1"
           id="path32"
           inkscape:connector-curvature="0" /></g><g
         id="g34"
         transform="matrix(1,0,0,-1,0,776.29401)"><path
           d="m 567.137,385.824 0,198.422"
           style="fill:none;stroke:#000000;stroke-width:2.4000001;stroke-linecap:butt;stroke-linejoin:miter;stroke-miterlimit:4;stroke-dasharray:none;stroke-opacity:1"
           id="path36"
           inkscape:connector-curvature="0" /></g><g
         id="g38"
         transform="matrix(1,0,0,-1,0,776.29401)"><path
           d="m 482.098,385.824 0,198.422"
           style="fill:none;stroke:#000000;stroke-width:2.4000001;stroke-linecap:butt;stroke-linejoin:miter;stroke-miterlimit:4;stroke-dasharray:none;stroke-opacity:1"
           id="path40"
           inkscape:connector-curvature="0" /></g><g
         id="g42"
         transform="matrix(1,0,0,-1,0,776.29401)"><path
           d="m 397.059,385.824 0,198.422"
           style="fill:none;stroke:#000000;stroke-width:2.4000001;stroke-linecap:butt;stroke-linejoin:miter;stroke-miterlimit:4;stroke-dasharray:none;stroke-opacity:1"
           id="path44"
           inkscape:connector-curvature="0" /></g><g
         id="g46"
         transform="matrix(1,0,0,-1,0,776.29401)"><path
           d="m 312.02,385.824 0,198.422"
           style="fill:none;stroke:#000000;stroke-width:2.4000001;stroke-linecap:butt;stroke-linejoin:miter;stroke-miterlimit:4;stroke-dasharray:none;stroke-opacity:1"
           id="path48"
           inkscape:connector-curvature="0" /></g><g
         id="g50"
         transform="matrix(1,0,0,-1,0,776.29401)"><path
           d="m 594.484,460.523 c 0,7.829 -12.691,14.172 -28.347,14.172 -15.657,0 -28.344,-6.343 -28.344,-14.172 0,-7.828 12.687,-14.171 28.344,-14.171 15.656,0 28.347,6.343 28.347,14.171 z m -56.691,0.227 0,28.348 0.016,0 c 0.246,7.734 12.855,13.941 28.328,13.945 15.472,-0.004 28.078,-6.211 28.324,-13.945 l 0.023,0 0,-28.348 -0.023,0 c -0.246,7.734 -12.852,13.941 -28.324,13.945 -15.473,-0.004 -28.082,-6.211 -28.328,-13.945 l -0.016,0 z"
           style="fill:#ffffff;fill-opacity:1;fill-rule:nonzero;stroke:#000000;stroke-width:2.83464503;stroke-linecap:butt;stroke-linejoin:miter;stroke-miterlimit:4;stroke-dasharray:none;stroke-opacity:1"
           id="path52"
           inkscape:connector-curvature="0" /></g><g
         id="g54"
         transform="matrix(1,0,0,-1,0,776.29401)"><path
           d="m 510.945,461.023 c 0,7.829 -12.691,14.172 -28.347,14.172 -15.657,0 -28.348,-6.343 -28.348,-14.172 0,-7.828 12.691,-14.171 28.348,-14.171 15.656,0 28.347,6.343 28.347,14.171 z m -56.691,0.227 0,28.348 0.016,0 c 0.246,7.734 12.855,13.941 28.328,13.945 15.472,-0.004 28.078,-6.211 28.324,-13.945 l 0.023,0 0,-28.348 -0.023,0 c -0.246,7.734 -12.852,13.941 -28.324,13.945 -15.473,-0.004 -28.082,-6.211 -28.328,-13.945 l -0.016,0 z"
           style="fill:#ffffff;fill-opacity:1;fill-rule:nonzero;stroke:#000000;stroke-width:2.83464503;stroke-linecap:butt;stroke-linejoin:miter;stroke-miterlimit:4;stroke-dasharray:none;stroke-opacity:1"
           id="path56"
           inkscape:connector-curvature="0" /></g><g
         id="g58"
         transform="matrix(1,0,0,-1,0,776.29401)"><path
           d="m 423.906,461.023 c 0,7.829 -12.691,14.172 -28.347,14.172 -15.657,0 -28.348,-6.343 -28.348,-14.172 0,-7.828 12.691,-14.171 28.348,-14.171 15.656,0 28.347,6.343 28.347,14.171 z m -56.691,0.227 0,28.348 0.015,0 c 0.247,7.734 12.856,13.941 28.329,13.945 15.472,-0.004 28.078,-6.211 28.324,-13.945 l 0.023,0 0,-28.348 -0.023,0 c -0.246,7.734 -12.852,13.941 -28.324,13.945 -15.473,-0.004 -28.082,-6.211 -28.329,-13.945 l -0.015,0 z"
           style="fill:#ffffff;fill-opacity:1;fill-rule:nonzero;stroke:#000000;stroke-width:2.83464503;stroke-linecap:butt;stroke-linejoin:miter;stroke-miterlimit:4;stroke-dasharray:none;stroke-opacity:1"
           id="path60"
           inkscape:connector-curvature="0" /></g><g
         id="g62"
         transform="matrix(1,0,0,-1,0,776.29401)"><path
           d="m 338.867,461.023 c 0,7.829 -12.691,14.172 -28.347,14.172 -15.657,0 -28.348,-6.343 -28.348,-14.172 0,-7.828 12.691,-14.171 28.348,-14.171 15.656,0 28.347,6.343 28.347,14.171 z m -56.695,0.227 0,28.344 0.019,0 c 0.247,7.738 12.856,13.945 28.329,13.949 15.472,-0.004 28.078,-6.211 28.324,-13.949 l 0.023,0 0,-28.344 -0.023,0 c -0.25,7.734 -12.856,13.941 -28.324,13.945 -15.473,-0.004 -28.082,-6.211 -28.329,-13.945 l -0.019,0 z"
           style="fill:#ffffff;fill-opacity:1;fill-rule:nonzero;stroke:#000000;stroke-width:2.83464503;stroke-linecap:butt;stroke-linejoin:miter;stroke-miterlimit:4;stroke-dasharray:none;stroke-opacity:1"
           id="path64"
           inkscape:connector-curvature="0" /></g><g
         id="g66"
         transform="matrix(1,0,0,-1,0,776.29401)"><path
           d="m 592.984,543.562 c 0,7.829 -12.691,14.172 -28.347,14.172 -15.657,0 -28.344,-6.343 -28.344,-14.172 0,-7.828 12.687,-14.171 28.344,-14.171 15.656,0 28.347,6.343 28.347,14.171 z m -56.691,0.227 0,28.348 0.016,0 c 0.246,7.734 12.855,13.941 28.328,13.945 15.472,-0.004 28.078,-6.211 28.324,-13.945 l 0.023,0 0,-28.348 -0.023,0 c -0.246,7.734 -12.852,13.941 -28.324,13.945 -15.473,-0.004 -28.082,-6.211 -28.328,-13.945 l -0.016,0 z"
           style="fill:#ffffff;fill-opacity:1;fill-rule:nonzero;stroke:#000000;stroke-width:2.83464503;stroke-linecap:butt;stroke-linejoin:miter;stroke-miterlimit:4;stroke-dasharray:none;stroke-opacity:1"
           id="path68"
           inkscape:connector-curvature="0" /></g><g
         id="g70"
         transform="matrix(1,0,0,-1,0,776.29401)"><path
           d="m 509.445,544.062 c 0,7.829 -12.691,14.172 -28.347,14.172 -15.657,0 -28.348,-6.343 -28.348,-14.172 0,-7.828 12.691,-14.171 28.348,-14.171 15.656,0 28.347,6.343 28.347,14.171 z m -56.691,0.227 0,28.348 0.016,0 c 0.246,7.734 12.855,13.941 28.328,13.945 15.472,-0.004 28.078,-6.211 28.324,-13.945 l 0.023,0 0,-28.348 -0.023,0 c -0.246,7.734 -12.852,13.941 -28.324,13.945 -15.473,-0.004 -28.082,-6.211 -28.328,-13.945 l -0.016,0 z"
           style="fill:#ffffff;fill-opacity:1;fill-rule:nonzero;stroke:#000000;stroke-width:2.83464503;stroke-linecap:butt;stroke-linejoin:miter;stroke-miterlimit:4;stroke-dasharray:none;stroke-opacity:1"
           id="path72"
           inkscape:connector-curvature="0" /></g><g
         id="g74"
         transform="matrix(1,0,0,-1,0,776.29401)"><path
           d="m 422.406,544.062 c 0,7.829 -12.691,14.172 -28.347,14.172 -15.657,0 -28.348,-6.343 -28.348,-14.172 0,-7.828 12.691,-14.171 28.348,-14.171 15.656,0 28.347,6.343 28.347,14.171 z m -56.691,0.227 0,28.348 0.015,0 c 0.247,7.734 12.856,13.941 28.329,13.945 15.472,-0.004 28.078,-6.211 28.324,-13.945 l 0.023,0 0,-28.348 -0.023,0 c -0.246,7.734 -12.852,13.941 -28.324,13.945 -15.473,-0.004 -28.082,-6.211 -28.329,-13.945 l -0.015,0 z"
           style="fill:#ffffff;fill-opacity:1;fill-rule:nonzero;stroke:#000000;stroke-width:2.83464503;stroke-linecap:butt;stroke-linejoin:miter;stroke-miterlimit:4;stroke-dasharray:none;stroke-opacity:1"
           id="path76"
           inkscape:connector-curvature="0" /></g><g
         id="g78"
         transform="matrix(1,0,0,-1,0,776.29401)"><path
           d="m 337.367,544.062 c 0,7.829 -12.691,14.172 -28.347,14.172 -15.657,0 -28.348,-6.343 -28.348,-14.172 0,-7.828 12.691,-14.171 28.348,-14.171 15.656,0 28.347,6.343 28.347,14.171 z m -56.695,0.227 0,28.348 0.019,0 c 0.247,7.734 12.856,13.941 28.329,13.945 15.472,-0.004 28.078,-6.211 28.324,-13.945 l 0.023,0 0,-28.348 -0.023,0 c -0.25,7.734 -12.856,13.941 -28.324,13.945 -15.473,-0.004 -28.082,-6.211 -28.329,-13.945 l -0.019,0 z"
           style="fill:#ffffff;fill-opacity:1;fill-rule:nonzero;stroke:#000000;stroke-width:2.83464503;stroke-linecap:butt;stroke-linejoin:miter;stroke-miterlimit:4;stroke-dasharray:none;stroke-opacity:1"
           id="path80"
           inkscape:connector-curvature="0" /></g><g
         id="g82"
         transform="matrix(0,-1,-1,0,0,776.29401)"><path
           d="m 159.551,-255.828 112.387,0 0,-368.504 -112.387,0 0,368.504 z"
           style="fill:#eaeaea;fill-opacity:1;fill-rule:nonzero;stroke:#808080;stroke-width:1.41732299;stroke-linecap:butt;stroke-linejoin:miter;stroke-miterlimit:4;stroke-dasharray:none;stroke-opacity:1"
           id="path84"
           inkscape:connector-curvature="0" /></g><g
         id="g86"
         transform="matrix(1,0,0,-1,0,776.29401)"><path
           d="m 570.137,213.742 -255.117,0"
           style="fill:none;stroke:#000000;stroke-width:3;stroke-linecap:butt;stroke-linejoin:miter;stroke-miterlimit:4;stroke-dasharray:none;stroke-opacity:1"
           id="path88"
           inkscape:connector-curvature="0" /></g><text
         transform="matrix(1,0,0,-1,313.51413,697.21477)"
         style="font-variant:normal;font-weight:normal;font-size:39.99999619px;font-family:'DejaVu Sans';-inkscape-font-specification:DejaVuSans;writing-mode:lr-tb;fill:#000000;fill-opacity:1;fill-rule:nonzero;stroke:none"
         id="text90"><tspan
           x="0 30.799999 55.279999 70.959999 95.439995 108.12 133.48 158.07999 174.51999 198.15999 222.75999 239.31999"
           y="0"
           sodipodi:role="line"
           id="tspan92">Data Servers</tspan><tspan
           x="86.484352 102.08436 132.88435 158.24435"
           y="49.999996"
           sodipodi:role="line"
           id="tspan94">(DS)</tspan></text>
<g
         id="g96"
         transform="matrix(0,-1,-1,0,0,776.29401)"><path
           d="m 329.629,-0.707 225.355,0 0,-196.793 -225.355,0 0,196.793 z"
           style="fill:#eaeaea;fill-opacity:1;fill-rule:nonzero;stroke:#808080;stroke-width:1.41732299;stroke-linecap:butt;stroke-linejoin:miter;stroke-miterlimit:4;stroke-dasharray:none;stroke-opacity:1"
           id="path98"
           inkscape:connector-curvature="0" /></g><g
         id="g100"
         transform="matrix(1,0,0,-1,0,776.29401)"><path
           d="m 141.941,385.824 0,141.52"
           style="fill:none;stroke:#000000;stroke-width:2.4000001;stroke-linecap:butt;stroke-linejoin:miter;stroke-miterlimit:4;stroke-dasharray:none;stroke-opacity:1"
           id="path102"
           inkscape:connector-curvature="0" /></g><g
         id="g104"
         transform="matrix(1,0,0,-1,0,776.29401)"><path
           d="m 56.902,385.824 0,141.52"
           style="fill:none;stroke:#000000;stroke-width:2.4000001;stroke-linecap:butt;stroke-linejoin:miter;stroke-miterlimit:4;stroke-dasharray:none;stroke-opacity:1"
           id="path106"
           inkscape:connector-curvature="0" /></g><g
         id="g108"
         transform="matrix(1,0,0,-1,0,776.29401)"><path
           d="m 168.789,454.973 c 0,4.601 -12.691,8.328 -28.348,8.328 -15.656,0 -28.347,-3.727 -28.347,-8.328 0,-4.602 12.691,-8.328 28.347,-8.328 15.657,0 28.348,3.726 28.348,8.328 z m -56.695,0.132 0,16.661 0.015,0 c 0.25,4.546 12.86,8.195 28.332,8.195 15.473,-0.004 28.079,-3.649 28.325,-8.195 l 0.023,0 0,-16.661 -0.023,0 c -0.25,4.547 -12.856,8.196 -28.325,8.196 -15.472,0 -28.082,-3.649 -28.332,-8.196 l -0.015,0 z"
           style="fill:#ffffff;fill-opacity:1;fill-rule:nonzero;stroke:#000000;stroke-width:2.83464503;stroke-linecap:butt;stroke-linejoin:miter;stroke-miterlimit:4;stroke-dasharray:none;stroke-opacity:1"
           id="path110"
           inkscape:connector-curvature="0" /></g><g
         id="g112"
         transform="matrix(1,0,0,-1,0,776.29401)"><path
           d="m 83.75,454.973 c -0.004,4.601 -12.691,8.328 -28.348,8.328 -15.656,0 -28.347,-3.727 -28.347,-8.328 0,-4.602 12.691,-8.328 28.347,-8.328 15.657,0 28.348,3.726 28.348,8.328 z m -56.695,0.132 0,16.661 0.015,0 c 0.25,4.546 12.856,8.195 28.332,8.195 15.473,-0.004 28.078,-3.649 28.325,-8.195 l 0.019,0 0,-16.661 -0.019,0 c -0.25,4.547 -12.856,8.196 -28.325,8.196 -15.472,0 -28.082,-3.649 -28.332,-8.196 l -0.015,0 z"
           style="fill:#ffffff;fill-opacity:1;fill-rule:nonzero;stroke:#000000;stroke-width:2.83464503;stroke-linecap:butt;stroke-linejoin:miter;stroke-miterlimit:4;stroke-dasharray:none;stroke-opacity:1"
           id="path114"
           inkscape:connector-curvature="0" /></g><g
         id="g116"
         transform="matrix(1,0,0,-1,0,776.29401)"><path
           d="m 167.289,503.773 c 0,4.602 -12.691,8.332 -28.348,8.332 -15.656,0 -28.347,-3.73 -28.347,-8.332 0,-4.597 12.691,-8.328 28.347,-8.328 15.657,0 28.348,3.731 28.348,8.328 z m -56.695,0.133 0,16.66 0.015,0 c 0.25,4.547 12.86,8.196 28.332,8.196 15.473,0 28.079,-3.649 28.325,-8.196 l 0.023,0 0,-16.66 -0.023,0 c -0.25,4.547 -12.856,8.196 -28.325,8.199 -15.472,-0.003 -28.082,-3.652 -28.332,-8.199 l -0.015,0 z"
           style="fill:#ffffff;fill-opacity:1;fill-rule:nonzero;stroke:#000000;stroke-width:2.83464503;stroke-linecap:butt;stroke-linejoin:miter;stroke-miterlimit:4;stroke-dasharray:none;stroke-opacity:1"
           id="path118"
           inkscape:connector-curvature="0" /></g><g
         id="g120"
         transform="matrix(1,0,0,-1,0,776.29401)"><path
           d="m 82.246,503.773 c 0,4.602 -12.687,8.332 -28.344,8.332 -15.656,0 -28.347,-3.73 -28.347,-8.332 0,-4.597 12.691,-8.328 28.347,-8.328 15.657,0 28.348,3.731 28.344,8.328 z m -56.691,0.133 0,16.66 0.015,0 c 0.25,4.547 12.856,8.196 28.332,8.196 15.473,0 28.078,-3.649 28.325,-8.196 l 0.019,0 0,-16.66 -0.019,0 c -0.25,4.547 -12.856,8.196 -28.325,8.199 C 38.43,512.102 25.82,508.453 25.57,503.906 l -0.015,0 z"
           style="fill:#ffffff;fill-opacity:1;fill-rule:nonzero;stroke:#000000;stroke-width:2.83464503;stroke-linecap:butt;stroke-linejoin:miter;stroke-miterlimit:4;stroke-dasharray:none;stroke-opacity:1"
           id="path122"
           inkscape:connector-curvature="0" /></g><g
         id="g124"
         transform="matrix(1,0,0,-1,0,776.29401)"><path
           d="m 56.691,385.613 0,-170.078"
           style="fill:none;stroke:#000000;stroke-width:2.83464503;stroke-linecap:butt;stroke-linejoin:miter;stroke-miterlimit:4;stroke-dasharray:none;stroke-opacity:0.25490202"
           id="path126"
           inkscape:connector-curvature="0" /></g><path
         d="M 56.691,390.681 141.73,560.759"
         style="fill:#ffe680;fill-opacity:1;fill-rule:nonzero;stroke:none"
         id="path128"
         inkscape:connector-curvature="0" /><g
         id="g130"
         transform="matrix(1,0,0,-1,0,776.29401)"><path
           d="M 56.691,385.613 141.73,215.535"
           style="fill:none;stroke:#000000;stroke-width:2.83464503;stroke-linecap:butt;stroke-linejoin:miter;stroke-miterlimit:4;stroke-dasharray:none;stroke-opacity:0.25490202"
           id="path132"
           inkscape:connector-curvature="0" /></g><path
         d="M 141.73,390.681 56.691,560.759"
         style="fill:#ffe680;fill-opacity:1;fill-rule:nonzero;stroke:none"
         id="path134"
         inkscape:connector-curvature="0" /><g
         id="g136"
         transform="matrix(1,0,0,-1,0,776.29401)"><path
           d="M 141.73,385.613 56.691,215.535"
           style="fill:none;stroke:#000000;stroke-width:2.83464503;stroke-linecap:butt;stroke-linejoin:miter;stroke-miterlimit:4;stroke-dasharray:none;stroke-opacity:0.25490202"
           id="path138"
           inkscape:connector-curvature="0" /></g><g
         id="g140"
         transform="matrix(1,0,0,-1,0,776.29401)"><path
           d="m 141.73,385.613 0,-170.078"
           style="fill:none;stroke:#000000;stroke-width:2.83464503;stroke-linecap:butt;stroke-linejoin:miter;stroke-miterlimit:4;stroke-dasharray:none;stroke-opacity:0.25490202"
           id="path142"
           inkscape:connector-curvature="0" /></g><g
         id="g144"
         transform="matrix(0,-1,-1,0,0,776.29401)"><path
           d="m 188.73,-30.961 56.695,0 0,-56.691 -56.695,0 0,56.691 z"
           style="fill:#ffffff;fill-opacity:1;fill-rule:nonzero;stroke:#000000;stroke-width:2.83464503;stroke-linecap:butt;stroke-linejoin:miter;stroke-miterlimit:4;stroke-dasharray:none;stroke-opacity:1"
           id="path146"
           inkscape:connector-curvature="0" /></g><g
         id="g148"
         transform="matrix(1,0,0,-1,0,776.29401)"><path
           d="m 311.812,385.613 0,-170.078"
           style="fill:none;stroke:#000000;stroke-width:2.83464503;stroke-linecap:butt;stroke-linejoin:miter;stroke-miterlimit:4;stroke-dasharray:none;stroke-opacity:0.25490202"
           id="path150"
           inkscape:connector-curvature="0" /></g><path
         d="m 311.812,390.681 85.04,170.078"
         style="fill:#ffe680;fill-opacity:1;fill-rule:nonzero;stroke:none"
         id="path152"
         inkscape:connector-curvature="0" /><g
         id="g154"
         transform="matrix(1,0,0,-1,0,776.29401)"><path
           d="m 311.812,385.613 85.04,-170.078"
           style="fill:none;stroke:#000000;stroke-width:2.83464503;stroke-linecap:butt;stroke-linejoin:miter;stroke-miterlimit:4;stroke-dasharray:none;stroke-opacity:0.25490202"
           id="path156"
           inkscape:connector-curvature="0" /></g><path
         d="M 311.812,390.681 481.891,560.759"
         style="fill:#ffe680;fill-opacity:1;fill-rule:nonzero;stroke:none"
         id="path158"
         inkscape:connector-curvature="0" /><g
         id="g160"
         transform="matrix(1,0,0,-1,0,776.29401)"><path
           d="M 311.812,385.613 481.891,215.535"
           style="fill:none;stroke:#000000;stroke-width:2.83464503;stroke-linecap:butt;stroke-linejoin:miter;stroke-miterlimit:4;stroke-dasharray:none;stroke-opacity:0.25490202"
           id="path162"
           inkscape:connector-curvature="0" /></g><path
         d="M 311.812,390.681 566.93,560.759"
         style="fill:#ffe680;fill-opacity:1;fill-rule:nonzero;stroke:none"
         id="path164"
         inkscape:connector-curvature="0" /><g
         id="g166"
         transform="matrix(1,0,0,-1,0,776.29401)"><path
           d="M 311.812,385.613 566.93,215.535"
           style="fill:none;stroke:#000000;stroke-width:2.83464503;stroke-linecap:butt;stroke-linejoin:miter;stroke-miterlimit:4;stroke-dasharray:none;stroke-opacity:0.25490202"
           id="path168"
           inkscape:connector-curvature="0" /></g><path
         d="m 396.852,390.681 -85.04,170.078"
         style="fill:#ffe680;fill-opacity:1;fill-rule:nonzero;stroke:none"
         id="path170"
         inkscape:connector-curvature="0" /><g
         id="g172"
         transform="matrix(1,0,0,-1,0,776.29401)"><path
           d="M 396.852,385.613 311.812,215.535"
           style="fill:none;stroke:#000000;stroke-width:2.83464503;stroke-linecap:butt;stroke-linejoin:miter;stroke-miterlimit:4;stroke-dasharray:none;stroke-opacity:0.25490202"
           id="path174"
           inkscape:connector-curvature="0" /></g><g
         id="g176"
         transform="matrix(1,0,0,-1,0,776.29401)"><path
           d="m 396.852,385.613 0,-170.078"
           style="fill:none;stroke:#000000;stroke-width:2.83464503;stroke-linecap:butt;stroke-linejoin:miter;stroke-miterlimit:4;stroke-dasharray:none;stroke-opacity:0.25490202"
           id="path178"
           inkscape:connector-curvature="0" /></g><path
         d="m 396.852,390.681 85.039,170.078"
         style="fill:#ffe680;fill-opacity:1;fill-rule:nonzero;stroke:none"
         id="path180"
         inkscape:connector-curvature="0" /><g
         id="g182"
         transform="matrix(1,0,0,-1,0,776.29401)"><path
           d="M 396.852,385.613 481.891,215.535"
           style="fill:none;stroke:#000000;stroke-width:2.83464503;stroke-linecap:butt;stroke-linejoin:miter;stroke-miterlimit:4;stroke-dasharray:none;stroke-opacity:0.25490202"
           id="path184"
           inkscape:connector-curvature="0" /></g><path
         d="M 396.852,390.681 566.93,560.759"
         style="fill:#ffe680;fill-opacity:1;fill-rule:nonzero;stroke:none"
         id="path186"
         inkscape:connector-curvature="0" /><g
         id="g188"
         transform="matrix(1,0,0,-1,0,776.29401)"><path
           d="M 396.852,385.613 566.93,215.535"
           style="fill:none;stroke:#000000;stroke-width:2.83464503;stroke-linecap:butt;stroke-linejoin:miter;stroke-miterlimit:4;stroke-dasharray:none;stroke-opacity:0.25490202"
           id="path190"
           inkscape:connector-curvature="0" /></g><path
         d="M 481.891,390.681 311.812,560.759"
         style="fill:#ffe680;fill-opacity:1;fill-rule:nonzero;stroke:none"
         id="path192"
         inkscape:connector-curvature="0" /><g
         id="g194"
         transform="matrix(1,0,0,-1,0,776.29401)"><path
           d="M 481.891,385.613 311.812,215.535"
           style="fill:none;stroke:#000000;stroke-width:2.83464503;stroke-linecap:butt;stroke-linejoin:miter;stroke-miterlimit:4;stroke-dasharray:none;stroke-opacity:0.25490202"
           id="path196"
           inkscape:connector-curvature="0" /></g><path
         d="M 481.891,390.681 396.852,560.759"
         style="fill:#ffe680;fill-opacity:1;fill-rule:nonzero;stroke:none"
         id="path198"
         inkscape:connector-curvature="0" /><g
         id="g200"
         transform="matrix(1,0,0,-1,0,776.29401)"><path
           d="M 481.891,385.613 396.852,215.535"
           style="fill:none;stroke:#000000;stroke-width:2.83464503;stroke-linecap:butt;stroke-linejoin:miter;stroke-miterlimit:4;stroke-dasharray:none;stroke-opacity:0.25490202"
           id="path202"
           inkscape:connector-curvature="0" /></g><g
         id="g204"
         transform="matrix(1,0,0,-1,0,776.29401)"><path
           d="m 481.891,385.613 0,-170.078"
           style="fill:none;stroke:#000000;stroke-width:2.83464503;stroke-linecap:butt;stroke-linejoin:miter;stroke-miterlimit:4;stroke-dasharray:none;stroke-opacity:0.25490202"
           id="path206"
           inkscape:connector-curvature="0" /></g><path
         d="M 481.891,390.681 566.93,560.759"
         style="fill:#ffe680;fill-opacity:1;fill-rule:nonzero;stroke:none"
         id="path208"
         inkscape:connector-curvature="0" /><g
         id="g210"
         transform="matrix(1,0,0,-1,0,776.29401)"><path
           d="M 481.891,385.613 566.93,215.535"
           style="fill:none;stroke:#000000;stroke-width:2.83464503;stroke-linecap:butt;stroke-linejoin:miter;stroke-miterlimit:4;stroke-dasharray:none;stroke-opacity:0.25490202"
           id="path212"
           inkscape:connector-curvature="0" /></g><path
         d="M 566.93,390.681 311.812,560.759"
         style="fill:#ffe680;fill-opacity:1;fill-rule:nonzero;stroke:none"
         id="path214"
         inkscape:connector-curvature="0" /><g
         id="g216"
         transform="matrix(1,0,0,-1,0,776.29401)"><path
           d="M 566.93,385.613 311.812,215.535"
           style="fill:none;stroke:#000000;stroke-width:2.83464503;stroke-linecap:butt;stroke-linejoin:miter;stroke-miterlimit:4;stroke-dasharray:none;stroke-opacity:0.25490202"
           id="path218"
           inkscape:connector-curvature="0" /></g><path
         d="M 566.93,390.681 396.852,560.759"
         style="fill:#ffe680;fill-opacity:1;fill-rule:nonzero;stroke:none"
         id="path220"
         inkscape:connector-curvature="0" /><g
         id="g222"
         transform="matrix(1,0,0,-1,0,776.29401)"><path
           d="M 566.93,385.613 396.852,215.535"
           style="fill:none;stroke:#000000;stroke-width:2.83464503;stroke-linecap:butt;stroke-linejoin:miter;stroke-miterlimit:4;stroke-dasharray:none;stroke-opacity:0.25490202"
           id="path224"
           inkscape:connector-curvature="0" /></g><path
         d="M 566.93,390.681 481.891,560.759"
         style="fill:#ffe680;fill-opacity:1;fill-rule:nonzero;stroke:none"
         id="path226"
         inkscape:connector-curvature="0" /><g
         id="g228"
         transform="matrix(1,0,0,-1,0,776.29401)"><path
           d="M 566.93,385.613 481.891,215.535"
           style="fill:none;stroke:#000000;stroke-width:2.83464503;stroke-linecap:butt;stroke-linejoin:miter;stroke-miterlimit:4;stroke-dasharray:none;stroke-opacity:0.25490202"
           id="path230"
           inkscape:connector-curvature="0" /></g><g
         id="g232"
         transform="matrix(1,0,0,-1,0,776.29401)"><path
           d="m 566.93,385.613 0,-170.078"
           style="fill:none;stroke:#000000;stroke-width:2.83464503;stroke-linecap:butt;stroke-linejoin:miter;stroke-miterlimit:4;stroke-dasharray:none;stroke-opacity:0.25490202"
           id="path234"
           inkscape:connector-curvature="0" /></g><g
         id="g236"
         transform="matrix(0,-1,-1,0,0,776.29401)"><path
           d="m 188.23,-116.5 56.695,0 0,-56.691 -56.695,0 0,56.691 z"
           style="fill:#ffffff;fill-opacity:1;fill-rule:nonzero;stroke:#000000;stroke-width:2.83464503;stroke-linecap:butt;stroke-linejoin:miter;stroke-miterlimit:4;stroke-dasharray:none;stroke-opacity:1"
           id="path238"
           inkscape:connector-curvature="0" /></g><g
         id="g240"
         transform="matrix(0,-1,-1,0,0,776.29401)"><path
           d="m 364.586,-120.383 43.117,0 0,-43.117 -43.117,0 0,43.117 z"
           style="fill:#ffffff;fill-opacity:1;fill-rule:nonzero;stroke:#000000;stroke-width:2.83464503;stroke-linecap:butt;stroke-linejoin:miter;stroke-miterlimit:4;stroke-dasharray:none;stroke-opacity:1"
           id="path242"
           inkscape:connector-curvature="0" /></g><g
         id="g244"
         transform="matrix(0,-1,-1,0,0,776.29401)"><path
           d="m 364.762,-35.344 43.117,0 0,-43.117 -43.117,0 0,43.117 z"
           style="fill:#ffffff;fill-opacity:1;fill-rule:nonzero;stroke:#000000;stroke-width:2.83464503;stroke-linecap:butt;stroke-linejoin:miter;stroke-miterlimit:4;stroke-dasharray:none;stroke-opacity:1"
           id="path246"
           inkscape:connector-curvature="0" /></g><g
         id="g248"
         transform="matrix(0,-1,-1,0,0,776.29401)"><path
           d="m 365.262,-546.578 43.117,0 0,-43.117 -43.117,0 0,43.117 z"
           style="fill:#ffffff;fill-opacity:1;fill-rule:nonzero;stroke:#000000;stroke-width:2.83464503;stroke-linecap:butt;stroke-linejoin:miter;stroke-miterlimit:4;stroke-dasharray:none;stroke-opacity:1"
           id="path250"
           inkscape:connector-curvature="0" /></g><g
         id="g252"
         transform="matrix(0,-1,-1,0,0,776.29401)"><path
           d="m 364.586,-460.539 43.117,0 0,-43.117 -43.117,0 0,43.117 z"
           style="fill:#ffffff;fill-opacity:1;fill-rule:nonzero;stroke:#000000;stroke-width:2.83464503;stroke-linecap:butt;stroke-linejoin:miter;stroke-miterlimit:4;stroke-dasharray:none;stroke-opacity:1"
           id="path254"
           inkscape:connector-curvature="0" /></g><g
         id="g256"
         transform="matrix(0,-1,-1,0,0,776.29401)"><path
           d="m 364.586,-375.5 43.117,0 0,-43.117 -43.117,0 0,43.117 z"
           style="fill:#ffffff;fill-opacity:1;fill-rule:nonzero;stroke:#000000;stroke-width:2.83464503;stroke-linecap:butt;stroke-linejoin:miter;stroke-miterlimit:4;stroke-dasharray:none;stroke-opacity:1"
           id="path258"
           inkscape:connector-curvature="0" /></g><g
         id="g260"
         transform="matrix(0,-1,-1,0,0,776.29401)"><path
           d="m 364.762,-290.461 43.117,0 0,-43.117 -43.117,0 0,43.117 z"
           style="fill:#ffffff;fill-opacity:1;fill-rule:nonzero;stroke:#000000;stroke-width:2.83464503;stroke-linecap:butt;stroke-linejoin:miter;stroke-miterlimit:4;stroke-dasharray:none;stroke-opacity:1"
           id="path262"
           inkscape:connector-curvature="0" /></g><g
         id="g264"
         transform="matrix(0,-1,-1,0,0,776.29401)"><path
           d="m 185.895,-541.293 56.695,0 0,-56.691 -56.695,0 0,56.691 z"
           style="fill:#ffffff;fill-opacity:1;fill-rule:nonzero;stroke:#000000;stroke-width:2.83464503;stroke-linecap:butt;stroke-linejoin:miter;stroke-miterlimit:4;stroke-dasharray:none;stroke-opacity:1"
           id="path266"
           inkscape:connector-curvature="0" /></g><g
         id="g268"
         transform="matrix(0,-1,-1,0,0,776.29401)"><path
           d="m 186.395,-285.672 56.695,0 0,-56.695 -56.695,0 0,56.695 z"
           style="fill:#ffffff;fill-opacity:1;fill-rule:nonzero;stroke:#000000;stroke-width:2.83464503;stroke-linecap:butt;stroke-linejoin:miter;stroke-miterlimit:4;stroke-dasharray:none;stroke-opacity:1"
           id="path270"
           inkscape:connector-curvature="0" /></g><g
         id="g272"
         transform="matrix(0,-1,-1,0,0,776.29401)"><path
           d="m 184.898,-456.254 56.691,0 0,-56.691 -56.691,0 0,56.691 z"
           style="fill:#ffffff;fill-opacity:1;fill-rule:nonzero;stroke:#000000;stroke-width:2.83464503;stroke-linecap:butt;stroke-linejoin:miter;stroke-miterlimit:4;stroke-dasharray:none;stroke-opacity:1"
           id="path274"
           inkscape:connector-curvature="0" /></g><g
         id="g276"
         transform="matrix(0,-1,-1,0,0,776.29401)"><path
           d="m 185.898,-371.211 56.691,0 0,-56.695 -56.691,0 0,56.695 z"
           style="fill:#ffffff;fill-opacity:1;fill-rule:nonzero;stroke:#000000;stroke-width:2.83464503;stroke-linecap:butt;stroke-linejoin:miter;stroke-miterlimit:4;stroke-dasharray:none;stroke-opacity:1"
           id="path278"
           inkscape:connector-curvature="0" /></g><g
         id="g292"
         transform="matrix(1,0,0,-1,0,776.29401)"><path
           d="M 56.691,364.246 C 198.426,188.598 300.473,351.07 300.473,351.07"
           style="fill:none;stroke:#000000;stroke-width:4;stroke-linecap:butt;stroke-linejoin:miter;stroke-miterlimit:4;stroke-dasharray:none;stroke-opacity:0.91578902"
           id="path294"
           inkscape:connector-curvature="0" /></g><path
         d="m 305.383,417.403 -14.137,7.469 13.551,8.508 0.586,-15.977 z"
         style="fill:#000000;fill-opacity:0.91578902;fill-rule:evenodd;stroke:none"
         id="path296"
         inkscape:connector-curvature="0" /><g
         id="g298"
         transform="matrix(0.628084,-1,-1,-0.628084,0,776.29401)"><path
           d="m 394.909,-57.347 -11.723,6.774 0.002,-13.55 11.721,6.776 z"
           style="fill:none;stroke:#000000;stroke-width:1.693645;stroke-linecap:butt;stroke-linejoin:miter;stroke-miterlimit:4;stroke-dasharray:none;stroke-opacity:0.91578902"
           id="path300"
           inkscape:connector-curvature="0" /></g><g
         id="g302"
         transform="matrix(1,0,0,-1,0,776.29401)"><path
           d="M 56.691,364.246 C 198.426,188.598 300.473,351.07 300.473,351.07"
           style="fill:none;stroke:#000000;stroke-width:4;stroke-linecap:butt;stroke-linejoin:miter;stroke-miterlimit:4;stroke-dasharray:none;stroke-opacity:0.91578902"
           id="path304"
           inkscape:connector-curvature="0" /></g><path
         d="m 305.383,417.403 -14.137,7.469 13.551,8.508 0.586,-15.977 z"
         style="fill:#000000;fill-opacity:0.91578902;fill-rule:evenodd;stroke:none"
         id="path306"
         inkscape:connector-curvature="0" /><g
         id="g308"
         transform="matrix(0.628084,-1,-1,-0.628084,0,776.29401)"><path
           d="m 394.909,-57.347 -11.723,6.774 0.002,-13.55 11.721,6.776 z"
           style="fill:none;stroke:#000000;stroke-width:1.693645;stroke-linecap:butt;stroke-linejoin:miter;stroke-miterlimit:4;stroke-dasharray:none;stroke-opacity:0.91578902"
           id="path310"
           inkscape:connector-curvature="0" /></g><g
         id="g312"
         transform="matrix(1,0,0,-1,0,776.29401)"><path
           d="M 56.691,364.246 C 198.426,188.598 527.242,351.07 527.242,351.07"
           style="fill:none;stroke:#000000;stroke-width:4;stroke-linecap:butt;stroke-linejoin:miter;stroke-miterlimit:4;stroke-dasharray:none;stroke-opacity:0.91578902"
           id="path314"
           inkscape:connector-curvature="0" /></g><path
         d="m 535.52,421.134 -15.95,-1.043 7.086,14.348 8.864,-13.305 z"
         style="fill:#000000;fill-opacity:0.91578902;fill-rule:evenodd;stroke:none"
         id="path316"
         inkscape:connector-curvature="0" /><g
         id="g318"
         transform="matrix(1,-0.494114,-0.494114,-1,0,776.29401)"><path
           d="m 571.483,72.783 -12.406,7.172 -0.002,-14.346 12.408,7.174 z"
           style="fill:none;stroke:#000000;stroke-width:1.79305601;stroke-linecap:butt;stroke-linejoin:miter;stroke-miterlimit:4;stroke-dasharray:none;stroke-opacity:0.91578902"
           id="path320"
           inkscape:connector-curvature="0" /></g><g
         id="g322"
         transform="matrix(1,0,0,-1,0,776.29401)"><path
           d="M 56.691,364.246 C 198.426,188.598 445.039,351.07 445.039,351.07"
           style="fill:none;stroke:#000000;stroke-width:4;stroke-linecap:butt;stroke-linejoin:miter;stroke-miterlimit:4;stroke-dasharray:none;stroke-opacity:0.91578902"
           id="path324"
           inkscape:connector-curvature="0" /></g><path
         d="m 452.75,420.146 -15.961,0.933 8.805,13.36 7.156,-14.293 z"
         style="fill:#000000;fill-opacity:0.91578902;fill-rule:evenodd;stroke:none"
         id="path326"
         inkscape:connector-curvature="0" /><g
         id="g328"
         transform="matrix(1,-0.658818,-0.658818,-1,0,776.29401)"><path
           d="m 479.336,40.353 -11.559,6.682 0.002,-13.361 11.557,6.679 z"
           style="fill:none;stroke:#000000;stroke-width:1.67012501;stroke-linecap:butt;stroke-linejoin:miter;stroke-miterlimit:4;stroke-dasharray:none;stroke-opacity:0.91578902"
           id="path330"
           inkscape:connector-curvature="0" /></g><g
         id="g332"
         transform="matrix(1,0,0,-1,0,776.29401)"><path
           d="M 56.691,364.246 C 198.426,188.598 362.836,351.07 362.836,351.07"
           style="fill:none;stroke:#000000;stroke-width:4;stroke-linecap:butt;stroke-linejoin:miter;stroke-miterlimit:4;stroke-dasharray:none;stroke-opacity:0.91578902"
           id="path334"
           inkscape:connector-curvature="0" /></g><path
         d="m 369.402,418.735 -15.468,4.036 11.246,11.382 4.222,-15.418 z"
         style="fill:#000000;fill-opacity:0.91578902;fill-rule:evenodd;stroke:none"
         id="path336"
         inkscape:connector-curvature="0" /><g
         id="g338"
         transform="matrix(1,-0.988228,-0.988228,-1,0,776.29401)"><path
           d="m 365.655,-3.792 -9.843,5.692 -0.002,-11.381 9.845,5.689 z"
           style="fill:none;stroke:#000000;stroke-width:1.422562;stroke-linecap:butt;stroke-linejoin:miter;stroke-miterlimit:4;stroke-dasharray:none;stroke-opacity:0.91578902"
           id="path340"
           inkscape:connector-curvature="0" /></g><g
         id="g342"
         transform="matrix(1,0,0,-1,0,776.29401)"><path
           d="m 141.73,357.266 c 85.043,-113.387 158.743,-5.668 158.743,-5.668"
           style="fill:none;stroke:#000000;stroke-width:4;stroke-linecap:butt;stroke-linejoin:miter;stroke-miterlimit:4;stroke-dasharray:none;stroke-opacity:0.91578902"
           id="path344"
           inkscape:connector-curvature="0" /></g><path
         d="m 305.688,417.079 -14.418,6.903 13.203,9.035 1.215,-15.938 z"
         style="fill:#000000;fill-opacity:0.91578902;fill-rule:evenodd;stroke:none"
         id="path346"
         inkscape:connector-curvature="0" /><g
         id="g348"
         transform="matrix(0.68421,-1,-1,-0.68421,0,776.29401)"><path
           d="m 387.135,-40.806 -11.421,6.604 -10e-4,-13.204 11.422,6.6 z"
           style="fill:none;stroke:#000000;stroke-width:1.65061402;stroke-linecap:butt;stroke-linejoin:miter;stroke-miterlimit:4;stroke-dasharray:none;stroke-opacity:0.91578902"
           id="path350"
           inkscape:connector-curvature="0" /></g><g
         id="g352"
         transform="matrix(1,0,0,-1,0,776.29401)"><path
           d="m 141.73,357.266 c 85.043,-113.387 158.743,-5.668 158.743,-5.668"
           style="fill:none;stroke:#000000;stroke-width:4;stroke-linecap:butt;stroke-linejoin:miter;stroke-miterlimit:4;stroke-dasharray:none;stroke-opacity:0.91578902"
           id="path354"
           inkscape:connector-curvature="0" /></g><path
         d="m 305.688,417.079 -14.418,6.903 13.203,9.035 1.215,-15.938 z"
         style="fill:#000000;fill-opacity:0.91578902;fill-rule:evenodd;stroke:none"
         id="path356"
         inkscape:connector-curvature="0" /><g
         id="g358"
         transform="matrix(0.68421,-1,-1,-0.68421,0,776.29401)"><path
           d="m 387.135,-40.806 -11.421,6.604 -10e-4,-13.204 11.422,6.6 z"
           style="fill:none;stroke:#000000;stroke-width:1.65061402;stroke-linecap:butt;stroke-linejoin:miter;stroke-miterlimit:4;stroke-dasharray:none;stroke-opacity:0.91578902"
           id="path360"
           inkscape:connector-curvature="0" /></g><g
         id="g362"
         transform="matrix(1,0,0,-1,0,776.29401)"><path
           d="m 141.73,357.266 c 85.043,-113.387 385.512,-5.668 385.512,-5.668"
           style="fill:none;stroke:#000000;stroke-width:4;stroke-linecap:butt;stroke-linejoin:miter;stroke-miterlimit:4;stroke-dasharray:none;stroke-opacity:0.91578902"
           id="path364"
           inkscape:connector-curvature="0" /></g><path
         d="m 535.934,421.583 -15.727,-2.863 5.398,15.062 10.329,-12.199 z"
         style="fill:#000000;fill-opacity:0.91578902;fill-rule:evenodd;stroke:none"
         id="path366"
         inkscape:connector-curvature="0" /><g
         id="g368"
         transform="matrix(1,-0.358491,-0.358491,-1,0,776.29401)"><path
           d="m 587.581,144.069 -13.026,7.533 -10e-4,-15.062 13.027,7.529 z"
           style="fill:none;stroke:#000000;stroke-width:1.88267899;stroke-linecap:butt;stroke-linejoin:miter;stroke-miterlimit:4;stroke-dasharray:none;stroke-opacity:0.91578902"
           id="path370"
           inkscape:connector-curvature="0" /></g><g
         id="g372"
         transform="matrix(1,0,0,-1,0,776.29401)"><path
           d="m 141.73,357.266 c 85.043,-113.387 303.309,-5.668 303.309,-5.668"
           style="fill:none;stroke:#000000;stroke-width:4;stroke-linecap:butt;stroke-linejoin:miter;stroke-miterlimit:4;stroke-dasharray:none;stroke-opacity:0.91578902"
           id="path374"
           inkscape:connector-curvature="0" /></g><path
         d="m 453.316,420.61 -15.949,-1.046 7.082,14.347 8.867,-13.301 z"
         style="fill:#000000;fill-opacity:0.91578902;fill-rule:evenodd;stroke:none"
         id="path376"
         inkscape:connector-curvature="0" /><g
         id="g378"
         transform="matrix(1,-0.493507,-0.493507,-1,0,776.29401)"><path
           d="m 505.689,106.123 -12.41,7.171 10e-4,-14.348 12.409,7.177 z"
           style="fill:none;stroke:#000000;stroke-width:1.79348803;stroke-linecap:butt;stroke-linejoin:miter;stroke-miterlimit:4;stroke-dasharray:none;stroke-opacity:0.91578902"
           id="path380"
           inkscape:connector-curvature="0" /></g><g
         id="g382"
         transform="matrix(1,0,0,-1,0,776.29401)"><path
           d="m 141.73,357.266 c 85.043,-113.387 221.106,-5.668 221.106,-5.668"
           style="fill:none;stroke:#000000;stroke-width:4;stroke-linecap:butt;stroke-linejoin:miter;stroke-miterlimit:4;stroke-dasharray:none;stroke-opacity:0.91578902"
           id="path384"
           inkscape:connector-curvature="0" /></g><path
         d="m 370.074,418.966 -15.816,2.32 9.93,12.543 5.886,-14.863 z"
         style="fill:#000000;fill-opacity:0.91578902;fill-rule:evenodd;stroke:none"
         id="path386"
         inkscape:connector-curvature="0" /><g
         id="g388"
         transform="matrix(1,-0.791667,-0.791667,-1,0,776.29401)"><path
           d="m 401.392,39.559 -10.852,6.271 0,-12.543 10.852,6.272 z"
           style="fill:none;stroke:#000000;stroke-width:1.56809199;stroke-linecap:butt;stroke-linejoin:miter;stroke-miterlimit:4;stroke-dasharray:none;stroke-opacity:0.91578902"
           id="path390"
           inkscape:connector-curvature="0" /></g><flowRoot
         xml:space="preserve"
         id="flowRoot4537"
         style="color:#000000;clip-rule:nonzero;display:inline;overflow:visible;visibility:visible;opacity:1;isolation:auto;mix-blend-mode:normal;color-interpolation:sRGB;color-interpolation-filters:linearRGB;solid-color:#000000;solid-opacity:1;fill-opacity:1;fill-rule:nonzero;stroke-width:5;stroke-linecap:butt;stroke-linejoin:miter;stroke-miterlimit:4;stroke-dasharray:none;stroke-dashoffset:0;stroke-opacity:0.9157895;filter-blend-mode:normal;filter-gaussianBlur-deviation:0;color-rendering:auto;image-rendering:auto;shape-rendering:auto;text-rendering:auto;enable-background:accumulate;font-size:12.5px;stroke:#000000;-inkscape-font-specification:sans-serif;font-family:sans-serif;font-weight:normal;font-style:normal;font-stretch:normal;font-variant:normal;text-anchor:start;text-align:start;fill:none;writing-mode:lr;line-height:125%"><flowRegion
           id="flowRegion4539"><rect
             id="rect4541"
             width="167.17722"
             height="120.65834"
             x="-513.16138"
             y="319.10321" /></flowRegion><flowPara
           id="flowPara4543"></flowPara></flowRoot><text
         y="-122.27087"
         x="98.966782"
         style="font-variant:normal;font-weight:normal;font-size:39.99999619px;font-family:'DejaVu Sans';-inkscape-font-specification:DejaVuSans;writing-mode:lr-tb;fill:#000000;fill-opacity:1;fill-rule:nonzero;stroke:none"
         id="text22-3"
         transform="scale(1,-1)"><tspan
           sodipodi:role="line"
           id="tspan28-5"
           x="98.966782"
           y="-122.27087"
           style="text-align:center;text-anchor:middle">Metadata</tspan><tspan
           sodipodi:role="line"
           x="98.966782"
           y="-72.270874"
           id="tspan4600"
           style="text-align:center;text-anchor:middle">Targets</tspan><tspan
           sodipodi:role="line"
           x="98.966782"
           y="-22.270876"
           id="tspan4602"
           style="text-align:center;text-anchor:middle">(MDT)</tspan></text>
<text
         y="-123.50134"
         x="439.10342"
         style="font-variant:normal;font-weight:normal;font-size:39.99999619px;font-family:'DejaVu Sans';-inkscape-font-specification:DejaVuSans;writing-mode:lr-tb;fill:#000000;fill-opacity:1;fill-rule:nonzero;stroke:none"
         id="text22-35"
         transform="scale(1,-1)"><tspan
           sodipodi:role="line"
           id="tspan28-1"
           x="439.10342"
           y="-123.50134"
           style="text-align:center;text-anchor:middle">Data Targets</tspan><tspan
           sodipodi:role="line"
           x="439.10342"
           y="-73.50135"
           id="tspan4590"
           style="text-align:center;text-anchor:middle">(DT)</tspan></text>
</g></g></svg>