<svg xmlns="http://www.w3.org/2000/svg" xmlns:xlink="http://www.w3.org/1999/xlink" width="856.63" height="460"><g transform="translate(-86 -100)"><path d="M0 0h1360v1760H0z" fill="#fff"/><path d="M120 120h80v420h-80z" stroke="#000" stroke-width="2" fill="#fff"/><use xlink:href="#a" transform="matrix(6.123233995736766e-17,-1,1,6.123233995736766e-17,125,535) translate(151 40.333333333333336)"/><path d="M820 120h80v420h-80z" stroke="#000" stroke-width="2" fill="#fff"/><use xlink:href="#b" transform="matrix(6.123233995736766e-17,-1,1,6.123233995736766e-17,825,535) translate(143.62962962962962 40.333333333333336)"/><path d="M260 120h500v420H260z" stroke="#000" stroke-width="2" fill="#fff"/><path d="M300 340h120v160H300z" stroke="#000" stroke-width="2" fill="#fff"/><use xlink:href="#c" transform="matrix(1,0,0,1,305,345) translate(30.5 78.60000000000001)"/><path d="M600 340h120v160H600z" stroke="#000" stroke-width="2" fill="#fff"/><use xlink:href="#d" transform="matrix(1,0,0,1,605,345) translate(26 78.60000000000001)"/><path d="M201 420h98" stroke="#000" stroke-width="2" fill="none"/><path d="M201 421h-1v-2h1zM299 420l-14.27 4.64v-9.28z"/><path d="M300 419.27v1.46L283.73 426v-12zm-14.27 4l10.03-3.27-10.03-3.26z"/><path d="M721 420h98" stroke="#000" stroke-width="2" fill="none"/><path d="M721 421h-1v-2h1zM819 420l-14.27 4.64v-9.28z"/><path d="M820 419.27v1.46L803.73 426v-12zm-14.27 4l10.03-3.27-10.03-3.26z"/><path d="M300 140h420v80H300z" stroke="#000" stroke-width="2" fill="#fff"/><use xlink:href="#e" transform="matrix(1,0,0,1,305,145) translate(168.55 38.6)"/><path d="M440 340h140v160H440z" stroke="#000" stroke-width="2" fill="#fff"/><use xlink:href="#f" transform="matrix(1,0,0,1,445,345) translate(1.0749999999999957 78.60000000000001)"/><path d="M440 230h140v60H440z" stroke="#000" stroke-width="2" fill="#fff"/><use xlink:href="#g" transform="matrix(1,0,0,1,445,235) translate(39.025 28.6)"/><path d="M600 230h120v60H600z" stroke="#000" stroke-width="2" fill="#fff"/><use xlink:href="#h" transform="matrix(1,0,0,1,605,235) translate(15.574999999999996 28.6)"/><path d="M819 260h-99" stroke="#000" stroke-width="2" fill="none"/><path d="M820 261h-1v-2h1zM734.27 264.64L720 260l14.27-4.64z"/><path d="M735.27 266L720 261.06v-2.1l15.27-4.96zm-12.03-6l10.03 3.26v-6.52z"/><path d="M300 230h120v60H300z" stroke="#000" stroke-width="2" fill="#fff"/><use xlink:href="#i" transform="matrix(1,0,0,1,305,235) translate(17.525 28.6)"/><path d="M360 290v30h300v-30" stroke="#000" stroke-width="2" fill="none"/><path d="M664.64 304.27h-9.28L660 290z"/><path d="M666 305.27h-12l4.95-15.27h2.1zm-9.26-2h6.52L660 293.24z"/><path d="M510 340v-49" stroke="#000" stroke-width="2" fill="none"/><path d="M510 340l-4.64-14.27h9.28z"/><path d="M511.05 340h-2.1L504 324.73h12zm-4.3-13.27l3.25 10.03 3.26-10.03zM514.64 305.27h-9.28L510 291z"/><path d="M516 306.27h-12l5.27-16.27h1.46zm-9.26-2h6.52L510 294.24z"/><path d="M720 180h99" stroke="#000" stroke-width="2" fill="none"/><path d="M734.27 184.64L720 180l14.27-4.64z"/><path d="M735.27 186L720 181.06v-2.1l15.27-4.96zm-12.03-6l10.03 3.26v-6.52zM819 180l-14.27 4.64v-9.28z"/><path d="M820 179.27v1.46L803.73 186v-12zm-14.27 4l10.03-3.27-10.03-3.26z"/><defs><path d="M30-248c87 1 191-15 191 75 0 78-77 80-158 76V0H30v-248zm33 125c57 0 124 11 124-50 0-59-68-47-124-48v98" id="j"/><path d="M114-163C36-179 61-72 57 0H25l-1-190h30c1 12-1 29 2 39 6-27 23-49 58-41v29" id="k"/><path d="M100-194c62-1 85 37 85 99 1 63-27 99-86 99S16-35 15-95c0-66 28-99 85-99zM99-20c44 1 53-31 53-75 0-43-8-75-51-75s-53 32-53 75 10 74 51 75" id="l"/><path d="M85-194c31 0 48 13 60 33l-1-100h32l1 261h-30c-2-10 0-23-3-31C134-8 116 4 85 4 32 4 16-35 15-94c0-66 23-100 70-100zm9 24c-40 0-46 34-46 75 0 40 6 74 45 74 42 0 51-32 51-76 0-42-9-74-50-73" id="m"/><path d="M84 4C-5 8 30-112 23-190h32v120c0 31 7 50 39 49 72-2 45-101 50-169h31l1 190h-30c-1-10 1-25-2-33-11 22-28 36-60 37" id="n"/><path d="M96-169c-40 0-48 33-48 73s9 75 48 75c24 0 41-14 43-38l32 2c-6 37-31 61-74 61-59 0-76-41-82-99-10-93 101-131 147-64 4 7 5 14 7 22l-32 3c-4-21-16-35-41-35" id="o"/><path d="M100-194c63 0 86 42 84 106H49c0 40 14 67 53 68 26 1 43-12 49-29l28 8c-11 28-37 45-77 45C44 4 14-33 15-96c1-61 26-98 85-98zm52 81c6-60-76-77-97-28-3 7-6 17-6 28h103" id="p"/><g id="a"><use transform="matrix(0.07407407407407408,0,0,0.07407407407407408,0,0)" xlink:href="#j"/><use transform="matrix(0.07407407407407408,0,0,0.07407407407407408,17.77777777777778,0)" xlink:href="#k"/><use transform="matrix(0.07407407407407408,0,0,0.07407407407407408,26.592592592592595,0)" xlink:href="#l"/><use transform="matrix(0.07407407407407408,0,0,0.07407407407407408,41.40740740740741,0)" xlink:href="#m"/><use transform="matrix(0.07407407407407408,0,0,0.07407407407407408,56.22222222222223,0)" xlink:href="#n"/><use transform="matrix(0.07407407407407408,0,0,0.07407407407407408,71.03703703703704,0)" xlink:href="#o"/><use transform="matrix(0.07407407407407408,0,0,0.07407407407407408,84.37037037037038,0)" xlink:href="#p"/><use transform="matrix(0.07407407407407408,0,0,0.07407407407407408,99.1851851851852,0)" xlink:href="#k"/></g><path d="M212-179c-10-28-35-45-73-45-59 0-87 40-87 99 0 60 29 101 89 101 43 0 62-24 78-52l27 14C228-24 195 4 139 4 59 4 22-46 18-125c-6-104 99-153 187-111 19 9 31 26 39 46" id="q"/><path d="M117-194c89-4 53 116 60 194h-32v-121c0-31-8-49-39-48C34-167 62-67 57 0H25l-1-190h30c1 10-1 24 2 32 11-22 29-35 61-36" id="r"/><path d="M135-143c-3-34-86-38-87 0 15 53 115 12 119 90S17 21 10-45l28-5c4 36 97 45 98 0-10-56-113-15-118-90-4-57 82-63 122-42 12 7 21 19 24 35" id="s"/><path d="M210-169c-67 3-38 105-44 169h-31v-121c0-29-5-50-35-48C34-165 62-65 56 0H25l-1-190h30c1 10-1 24 2 32 10-44 99-50 107 0 11-21 27-35 58-36 85-2 47 119 55 194h-31v-121c0-29-5-49-35-48" id="t"/><g id="b"><use transform="matrix(0.07407407407407408,0,0,0.07407407407407408,0,0)" xlink:href="#q"/><use transform="matrix(0.07407407407407408,0,0,0.07407407407407408,19.185185185185187,0)" xlink:href="#l"/><use transform="matrix(0.07407407407407408,0,0,0.07407407407407408,34,0)" xlink:href="#r"/><use transform="matrix(0.07407407407407408,0,0,0.07407407407407408,48.81481481481481,0)" xlink:href="#s"/><use transform="matrix(0.07407407407407408,0,0,0.07407407407407408,62.14814814814816,0)" xlink:href="#n"/><use transform="matrix(0.07407407407407408,0,0,0.07407407407407408,76.96296296296296,0)" xlink:href="#t"/><use transform="matrix(0.07407407407407408,0,0,0.07407407407407408,99.11111111111111,0)" xlink:href="#p"/><use transform="matrix(0.07407407407407408,0,0,0.07407407407407408,113.92592592592592,0)" xlink:href="#k"/></g><path d="M33 0v-248h34V0H33" id="u"/><path d="M177-190C167-65 218 103 67 71c-23-6-38-20-44-43l32-5c15 47 100 32 89-28v-30C133-14 115 1 83 1 29 1 15-40 15-95c0-56 16-97 71-98 29-1 48 16 59 35 1-10 0-23 2-32h30zM94-22c36 0 50-32 50-73 0-42-14-75-50-75-39 0-46 34-46 75s6 73 46 73" id="v"/><path d="M59-47c-2 24 18 29 38 22v24C64 9 27 4 27-40v-127H5v-23h24l9-43h21v43h35v23H59v120" id="w"/><g id="c"><use transform="matrix(0.05,0,0,0.05,0,0)" xlink:href="#u"/><use transform="matrix(0.05,0,0,0.05,5,0)" xlink:href="#r"/><use transform="matrix(0.05,0,0,0.05,15,0)" xlink:href="#v"/><use transform="matrix(0.05,0,0,0.05,25,0)" xlink:href="#p"/><use transform="matrix(0.05,0,0,0.05,35,0)" xlink:href="#s"/><use transform="matrix(0.05,0,0,0.05,44,0)" xlink:href="#w"/></g><path d="M205 0l-28-72H64L36 0H1l101-248h38L239 0h-34zm-38-99l-47-123c-12 45-31 82-46 123h93" id="x"/><g id="d"><use transform="matrix(0.05,0,0,0.05,0,0)" xlink:href="#x"/><use transform="matrix(0.05,0,0,0.05,12,0)" xlink:href="#o"/><use transform="matrix(0.05,0,0,0.05,21,0)" xlink:href="#o"/><use transform="matrix(0.05,0,0,0.05,30,0)" xlink:href="#p"/><use transform="matrix(0.05,0,0,0.05,40,0)" xlink:href="#s"/><use transform="matrix(0.05,0,0,0.05,49,0)" xlink:href="#s"/></g><path d="M115-194c55 1 70 41 70 98S169 2 115 4C84 4 66-9 55-30l1 105H24l-1-265h31l2 30c10-21 28-34 59-34zm-8 174c40 0 45-34 45-75s-6-73-45-74c-42 0-51 32-51 76 0 43 10 73 51 73" id="y"/><g id="e"><use transform="matrix(0.05,0,0,0.05,0,0)" xlink:href="#q"/><use transform="matrix(0.05,0,0,0.05,12.950000000000001,0)" xlink:href="#l"/><use transform="matrix(0.05,0,0,0.05,22.950000000000003,0)" xlink:href="#t"/><use transform="matrix(0.05,0,0,0.05,37.900000000000006,0)" xlink:href="#y"/><use transform="matrix(0.05,0,0,0.05,47.900000000000006,0)" xlink:href="#n"/><use transform="matrix(0.05,0,0,0.05,57.900000000000006,0)" xlink:href="#w"/><use transform="matrix(0.05,0,0,0.05,62.900000000000006,0)" xlink:href="#p"/></g><path d="M185-189c-5-48-123-54-124 2 14 75 158 14 163 119 3 78-121 87-175 55-17-10-28-26-33-46l33-7c5 56 141 63 141-1 0-78-155-14-162-118-5-82 145-84 179-34 5 7 8 16 11 25" id="z"/><path d="M141-36C126-15 110 5 73 4 37 3 15-17 15-53c-1-64 63-63 125-63 3-35-9-54-41-54-24 1-41 7-42 31l-33-3c5-37 33-52 76-52 45 0 72 20 72 64v82c-1 20 7 32 28 27v20c-31 9-61-2-59-35zM48-53c0 20 12 33 32 33 41-3 63-29 60-74-43 2-92-5-92 41" id="A"/><path d="M0 4l72-265h28L28 4H0" id="B"/><path d="M106-169C34-169 62-67 57 0H25v-261h32l-1 103c12-21 28-36 61-36 89 0 53 116 60 194h-32v-121c2-32-8-49-39-48" id="C"/><path d="M24-231v-30h32v30H24zM24 0v-190h32V0H24" id="D"/><path d="M108 0H70L1-190h34L89-25l56-165h34" id="E"/><g id="f"><use transform="matrix(0.05,0,0,0.05,0,0)" xlink:href="#z"/><use transform="matrix(0.05,0,0,0.05,12,0)" xlink:href="#w"/><use transform="matrix(0.05,0,0,0.05,17,0)" xlink:href="#l"/><use transform="matrix(0.05,0,0,0.05,27,0)" xlink:href="#k"/><use transform="matrix(0.05,0,0,0.05,32.95,0)" xlink:href="#A"/><use transform="matrix(0.05,0,0,0.05,42.95,0)" xlink:href="#v"/><use transform="matrix(0.05,0,0,0.05,52.95,0)" xlink:href="#p"/><use transform="matrix(0.05,0,0,0.05,62.95,0)" xlink:href="#B"/><use transform="matrix(0.05,0,0,0.05,67.95,0)" xlink:href="#x"/><use transform="matrix(0.05,0,0,0.05,79.95,0)" xlink:href="#k"/><use transform="matrix(0.05,0,0,0.05,85.9,0)" xlink:href="#o"/><use transform="matrix(0.05,0,0,0.05,94.9,0)" xlink:href="#C"/><use transform="matrix(0.05,0,0,0.05,104.9,0)" xlink:href="#D"/><use transform="matrix(0.05,0,0,0.05,108.85000000000001,0)" xlink:href="#E"/><use transform="matrix(0.05,0,0,0.05,117.85000000000001,0)" xlink:href="#p"/></g><g id="g"><use transform="matrix(0.05,0,0,0.05,0,0)" xlink:href="#q"/><use transform="matrix(0.05,0,0,0.05,12.950000000000001,0)" xlink:href="#A"/><use transform="matrix(0.05,0,0,0.05,22.950000000000003,0)" xlink:href="#o"/><use transform="matrix(0.05,0,0,0.05,31.950000000000003,0)" xlink:href="#C"/><use transform="matrix(0.05,0,0,0.05,41.95,0)" xlink:href="#p"/></g><path d="M30-248c118-7 216 8 213 122C240-48 200 0 122 0H30v-248zM63-27c89 8 146-16 146-99s-60-101-146-95v194" id="F"/><path d="M179-190L93 31C79 59 56 82 12 73V49c39 6 53-20 64-50L1-190h34L92-34l54-156h33" id="G"/><g id="h"><use transform="matrix(0.05,0,0,0.05,0,0)" xlink:href="#F"/><use transform="matrix(0.05,0,0,0.05,12.950000000000001,0)" xlink:href="#D"/><use transform="matrix(0.05,0,0,0.05,16.900000000000002,0)" xlink:href="#s"/><use transform="matrix(0.05,0,0,0.05,25.900000000000002,0)" xlink:href="#o"/><use transform="matrix(0.05,0,0,0.05,34.900000000000006,0)" xlink:href="#l"/><use transform="matrix(0.05,0,0,0.05,44.900000000000006,0)" xlink:href="#E"/><use transform="matrix(0.05,0,0,0.05,53.900000000000006,0)" xlink:href="#p"/><use transform="matrix(0.05,0,0,0.05,63.900000000000006,0)" xlink:href="#k"/><use transform="matrix(0.05,0,0,0.05,69.85000000000001,0)" xlink:href="#G"/></g><path d="M240 0l2-218c-23 76-54 145-80 218h-23L58-218 59 0H30v-248h44l77 211c21-75 51-140 76-211h43V0h-30" id="H"/><g id="i"><use transform="matrix(0.05,0,0,0.05,0,0)" xlink:href="#H"/><use transform="matrix(0.05,0,0,0.05,14.950000000000001,0)" xlink:href="#p"/><use transform="matrix(0.05,0,0,0.05,24.950000000000003,0)" xlink:href="#w"/><use transform="matrix(0.05,0,0,0.05,29.950000000000003,0)" xlink:href="#A"/><use transform="matrix(0.05,0,0,0.05,39.95,0)" xlink:href="#m"/><use transform="matrix(0.05,0,0,0.05,49.95,0)" xlink:href="#A"/><use transform="matrix(0.05,0,0,0.05,59.95,0)" xlink:href="#w"/><use transform="matrix(0.05,0,0,0.05,64.95,0)" xlink:href="#A"/></g></defs></g></svg>